<mxfile host="app.diagrams.net" modified="2023-12-25T13:27:06.736Z" agent="Mozilla/5.0 (Macintosh; Intel Mac OS X 10_15_7) AppleWebKit/537.36 (KHTML, like Gecko) Chrome/120.0.0.0 Safari/537.36" version="22.1.11" etag="t8RBb97Dt8vvyH7fhgmB" type="github">
  <diagram name="Page-1" id="6y7hUANHbX3cIMK4A7YL">
    <mxGraphModel>
      <root>
        <mxCell id="0" />
        <mxCell id="1" parent="0" />
      </root>
    </mxGraphModel>
  </diagram>
</mxfile>
